<mxfile host="Electron" agent="Mozilla/5.0 (Macintosh; Intel Mac OS X 10_15_7) AppleWebKit/537.36 (KHTML, like Gecko) draw.io/27.0.9 Chrome/134.0.6998.205 Electron/35.4.0 Safari/537.36" version="27.0.9">
  <diagram name="Page-1" id="nEOOBemAgin9DzcjjDUX">
    <mxGraphModel dx="697" dy="456" grid="1" gridSize="10" guides="1" tooltips="1" connect="1" arrows="1" fold="1" page="1" pageScale="1" pageWidth="827" pageHeight="1169" math="0" shadow="0">
      <root>
        <mxCell id="0" />
        <mxCell id="1" parent="0" />
        <mxCell id="LMyf4m7yS2QH-69aL0sZ-1" value="Клиент" style="rounded=0;whiteSpace=wrap;html=1;" vertex="1" parent="1">
          <mxGeometry x="380" y="420" width="100" height="60" as="geometry" />
        </mxCell>
        <mxCell id="LMyf4m7yS2QH-69aL0sZ-13" style="edgeStyle=orthogonalEdgeStyle;rounded=0;orthogonalLoop=1;jettySize=auto;html=1;exitX=1;exitY=0.5;exitDx=0;exitDy=0;entryX=0;entryY=0.5;entryDx=0;entryDy=0;endArrow=none;startFill=0;" edge="1" parent="1" source="LMyf4m7yS2QH-69aL0sZ-2" target="LMyf4m7yS2QH-69aL0sZ-7">
          <mxGeometry relative="1" as="geometry" />
        </mxCell>
        <mxCell id="LMyf4m7yS2QH-69aL0sZ-27" value="N" style="edgeLabel;html=1;align=center;verticalAlign=middle;resizable=0;points=[];" vertex="1" connectable="0" parent="LMyf4m7yS2QH-69aL0sZ-13">
          <mxGeometry x="-0.0333" y="2" relative="1" as="geometry">
            <mxPoint y="12" as="offset" />
          </mxGeometry>
        </mxCell>
        <mxCell id="LMyf4m7yS2QH-69aL0sZ-2" value="Звонок" style="rounded=0;whiteSpace=wrap;html=1;" vertex="1" parent="1">
          <mxGeometry x="130" y="420" width="100" height="60" as="geometry" />
        </mxCell>
        <mxCell id="LMyf4m7yS2QH-69aL0sZ-15" style="edgeStyle=orthogonalEdgeStyle;rounded=0;orthogonalLoop=1;jettySize=auto;html=1;exitX=0;exitY=0.5;exitDx=0;exitDy=0;entryX=1;entryY=0.5;entryDx=0;entryDy=0;endArrow=none;startFill=0;" edge="1" parent="1" source="LMyf4m7yS2QH-69aL0sZ-3" target="LMyf4m7yS2QH-69aL0sZ-8">
          <mxGeometry relative="1" as="geometry" />
        </mxCell>
        <mxCell id="LMyf4m7yS2QH-69aL0sZ-23" value="1" style="edgeLabel;html=1;align=center;verticalAlign=middle;resizable=0;points=[];" vertex="1" connectable="0" parent="LMyf4m7yS2QH-69aL0sZ-15">
          <mxGeometry x="0.1" y="2" relative="1" as="geometry">
            <mxPoint x="-129" y="8" as="offset" />
          </mxGeometry>
        </mxCell>
        <mxCell id="LMyf4m7yS2QH-69aL0sZ-25" value="N" style="edgeLabel;html=1;align=center;verticalAlign=middle;resizable=0;points=[];" vertex="1" connectable="0" parent="LMyf4m7yS2QH-69aL0sZ-15">
          <mxGeometry x="0.1667" y="-3" relative="1" as="geometry">
            <mxPoint y="13" as="offset" />
          </mxGeometry>
        </mxCell>
        <mxCell id="LMyf4m7yS2QH-69aL0sZ-17" style="edgeStyle=orthogonalEdgeStyle;rounded=0;orthogonalLoop=1;jettySize=auto;html=1;exitX=0.5;exitY=0;exitDx=0;exitDy=0;entryX=0.5;entryY=1;entryDx=0;entryDy=0;endArrow=none;startFill=0;" edge="1" parent="1" source="LMyf4m7yS2QH-69aL0sZ-3" target="LMyf4m7yS2QH-69aL0sZ-9">
          <mxGeometry relative="1" as="geometry" />
        </mxCell>
        <mxCell id="LMyf4m7yS2QH-69aL0sZ-21" value="1" style="edgeLabel;html=1;align=center;verticalAlign=middle;resizable=0;points=[];" vertex="1" connectable="0" parent="LMyf4m7yS2QH-69aL0sZ-17">
          <mxGeometry x="-0.0333" y="2" relative="1" as="geometry">
            <mxPoint x="12" as="offset" />
          </mxGeometry>
        </mxCell>
        <mxCell id="LMyf4m7yS2QH-69aL0sZ-3" value="Заказ" style="rounded=0;whiteSpace=wrap;html=1;" vertex="1" parent="1">
          <mxGeometry x="630" y="420" width="100" height="60" as="geometry" />
        </mxCell>
        <mxCell id="LMyf4m7yS2QH-69aL0sZ-11" style="edgeStyle=orthogonalEdgeStyle;rounded=0;orthogonalLoop=1;jettySize=auto;html=1;exitX=0.5;exitY=1;exitDx=0;exitDy=0;entryX=0.5;entryY=0;entryDx=0;entryDy=0;endArrow=none;startFill=0;" edge="1" parent="1" source="LMyf4m7yS2QH-69aL0sZ-4" target="LMyf4m7yS2QH-69aL0sZ-5">
          <mxGeometry relative="1" as="geometry" />
        </mxCell>
        <mxCell id="LMyf4m7yS2QH-69aL0sZ-28" value="1" style="edgeLabel;html=1;align=center;verticalAlign=middle;resizable=0;points=[];" vertex="1" connectable="0" parent="LMyf4m7yS2QH-69aL0sZ-11">
          <mxGeometry x="0.1" y="-2" relative="1" as="geometry">
            <mxPoint x="12" as="offset" />
          </mxGeometry>
        </mxCell>
        <mxCell id="LMyf4m7yS2QH-69aL0sZ-37" style="rounded=0;orthogonalLoop=1;jettySize=auto;html=1;exitX=1;exitY=0.5;exitDx=0;exitDy=0;entryX=0;entryY=0;entryDx=0;entryDy=0;endArrow=none;startFill=0;" edge="1" parent="1" source="LMyf4m7yS2QH-69aL0sZ-4" target="LMyf4m7yS2QH-69aL0sZ-3">
          <mxGeometry relative="1" as="geometry" />
        </mxCell>
        <mxCell id="LMyf4m7yS2QH-69aL0sZ-39" value="1" style="edgeLabel;html=1;align=center;verticalAlign=middle;resizable=0;points=[];" vertex="1" connectable="0" parent="LMyf4m7yS2QH-69aL0sZ-37">
          <mxGeometry x="-0.9388" relative="1" as="geometry">
            <mxPoint x="-2" y="-14" as="offset" />
          </mxGeometry>
        </mxCell>
        <mxCell id="LMyf4m7yS2QH-69aL0sZ-40" value="N" style="edgeLabel;html=1;align=center;verticalAlign=middle;resizable=0;points=[];" vertex="1" connectable="0" parent="LMyf4m7yS2QH-69aL0sZ-37">
          <mxGeometry x="0.9189" y="2" relative="1" as="geometry">
            <mxPoint x="6" y="-6" as="offset" />
          </mxGeometry>
        </mxCell>
        <mxCell id="LMyf4m7yS2QH-69aL0sZ-4" value="Пользователь" style="rounded=0;whiteSpace=wrap;html=1;" vertex="1" parent="1">
          <mxGeometry x="130" y="260" width="100" height="60" as="geometry" />
        </mxCell>
        <mxCell id="LMyf4m7yS2QH-69aL0sZ-12" style="edgeStyle=orthogonalEdgeStyle;rounded=0;orthogonalLoop=1;jettySize=auto;html=1;exitX=0.5;exitY=1;exitDx=0;exitDy=0;entryX=0.5;entryY=0;entryDx=0;entryDy=0;endArrow=none;startFill=0;" edge="1" parent="1" source="LMyf4m7yS2QH-69aL0sZ-5" target="LMyf4m7yS2QH-69aL0sZ-2">
          <mxGeometry relative="1" as="geometry" />
        </mxCell>
        <mxCell id="LMyf4m7yS2QH-69aL0sZ-29" value="N" style="edgeLabel;html=1;align=center;verticalAlign=middle;resizable=0;points=[];" vertex="1" connectable="0" parent="LMyf4m7yS2QH-69aL0sZ-12">
          <mxGeometry x="-0.1" relative="1" as="geometry">
            <mxPoint x="10" as="offset" />
          </mxGeometry>
        </mxCell>
        <mxCell id="LMyf4m7yS2QH-69aL0sZ-5" value="Записывает" style="rhombus;whiteSpace=wrap;html=1;" vertex="1" parent="1">
          <mxGeometry x="120" y="340" width="120" height="60" as="geometry" />
        </mxCell>
        <mxCell id="LMyf4m7yS2QH-69aL0sZ-6" value="Номенклатура" style="rounded=0;whiteSpace=wrap;html=1;" vertex="1" parent="1">
          <mxGeometry x="630" y="260" width="100" height="60" as="geometry" />
        </mxCell>
        <mxCell id="LMyf4m7yS2QH-69aL0sZ-14" style="edgeStyle=orthogonalEdgeStyle;rounded=0;orthogonalLoop=1;jettySize=auto;html=1;exitX=1;exitY=0.5;exitDx=0;exitDy=0;entryX=0;entryY=0.5;entryDx=0;entryDy=0;endArrow=none;startFill=0;" edge="1" parent="1" source="LMyf4m7yS2QH-69aL0sZ-7" target="LMyf4m7yS2QH-69aL0sZ-1">
          <mxGeometry relative="1" as="geometry" />
        </mxCell>
        <mxCell id="LMyf4m7yS2QH-69aL0sZ-26" value="1" style="edgeLabel;html=1;align=center;verticalAlign=middle;resizable=0;points=[];" vertex="1" connectable="0" parent="LMyf4m7yS2QH-69aL0sZ-14">
          <mxGeometry x="-0.4333" y="1" relative="1" as="geometry">
            <mxPoint y="11" as="offset" />
          </mxGeometry>
        </mxCell>
        <mxCell id="LMyf4m7yS2QH-69aL0sZ-7" value="Оставляет" style="rhombus;whiteSpace=wrap;html=1;" vertex="1" parent="1">
          <mxGeometry x="250" y="420" width="110" height="60" as="geometry" />
        </mxCell>
        <mxCell id="LMyf4m7yS2QH-69aL0sZ-16" style="edgeStyle=orthogonalEdgeStyle;rounded=0;orthogonalLoop=1;jettySize=auto;html=1;exitX=0;exitY=0.5;exitDx=0;exitDy=0;entryX=1;entryY=0.5;entryDx=0;entryDy=0;endArrow=none;startFill=0;" edge="1" parent="1" source="LMyf4m7yS2QH-69aL0sZ-8" target="LMyf4m7yS2QH-69aL0sZ-1">
          <mxGeometry relative="1" as="geometry" />
        </mxCell>
        <mxCell id="LMyf4m7yS2QH-69aL0sZ-8" value="Оставляет" style="rhombus;whiteSpace=wrap;html=1;" vertex="1" parent="1">
          <mxGeometry x="500" y="420" width="110" height="60" as="geometry" />
        </mxCell>
        <mxCell id="LMyf4m7yS2QH-69aL0sZ-18" style="edgeStyle=orthogonalEdgeStyle;rounded=0;orthogonalLoop=1;jettySize=auto;html=1;exitX=0.5;exitY=0;exitDx=0;exitDy=0;entryX=0.5;entryY=1;entryDx=0;entryDy=0;endArrow=none;startFill=0;" edge="1" parent="1" source="LMyf4m7yS2QH-69aL0sZ-9" target="LMyf4m7yS2QH-69aL0sZ-6">
          <mxGeometry relative="1" as="geometry" />
        </mxCell>
        <mxCell id="LMyf4m7yS2QH-69aL0sZ-22" value="N" style="edgeLabel;html=1;align=center;verticalAlign=middle;resizable=0;points=[];" vertex="1" connectable="0" parent="LMyf4m7yS2QH-69aL0sZ-18">
          <mxGeometry x="0.7" y="-1" relative="1" as="geometry">
            <mxPoint x="9" y="7" as="offset" />
          </mxGeometry>
        </mxCell>
        <mxCell id="LMyf4m7yS2QH-69aL0sZ-9" value="Содержит" style="rhombus;whiteSpace=wrap;html=1;" vertex="1" parent="1">
          <mxGeometry x="620" y="340" width="120" height="60" as="geometry" />
        </mxCell>
        <mxCell id="LMyf4m7yS2QH-69aL0sZ-30" value="Создает" style="rhombus;whiteSpace=wrap;html=1;" vertex="1" parent="1">
          <mxGeometry x="370" y="325" width="120" height="60" as="geometry" />
        </mxCell>
      </root>
    </mxGraphModel>
  </diagram>
</mxfile>
